<?xml version="1.0" standalone="no"?>
<!DOCTYPE svg PUBLIC "-//W3C//DTD SVG 20010904//EN"
 "http://www.w3.org/TR/2001/REC-SVG-20010904/DTD/svg10.dtd">
<svg version="1.0" xmlns="http://www.w3.org/2000/svg"
 width="775.000000pt" height="775.000000pt" viewBox="0 0 775.000000 775.000000"
 preserveAspectRatio="xMidYMid meet">
<metadata>
Created by potrace 1.14, written by Peter Selinger 2001-2017
</metadata>
<g transform="translate(0.000000,775.000000) scale(0.100000,-0.100000)"
fill="#000000" stroke="none">
<path d="M3740 7078 c-3 -3 -56 -8 -119 -12 -62 -3 -116 -8 -120 -10 -3 -2
-40 -7 -80 -10 -41 -4 -77 -9 -80 -11 -4 -2 -22 -6 -41 -9 -137 -21 -293 -55
-340 -73 -8 -3 -22 -7 -32 -9 -45 -9 -265 -90 -367 -135 -378 -167 -684 -375
-970 -658 -207 -206 -305 -333 -529 -686 -23 -36 -172 -342 -172 -353 0 -5
-13 -39 -28 -74 -24 -54 -60 -161 -117 -348 -21 -69 -53 -225 -65 -320 -6 -47
-13 -98 -16 -115 -10 -65 -19 -257 -18 -385 1 -241 19 -418 69 -675 23 -116
68 -296 79 -314 4 -6 16 -42 27 -81 10 -38 29 -93 43 -122 13 -29 36 -82 51
-118 64 -151 157 -333 197 -385 4 -5 44 -65 89 -132 44 -68 94 -136 109 -153
15 -16 25 -30 22 -30 -4 0 0 -6 8 -13 8 -7 20 -21 27 -32 6 -11 16 -19 22 -18
6 2 10 -3 8 -10 -1 -6 4 -11 11 -9 8 1 11 -1 8 -6 -6 -11 165 -192 182 -192 7
0 10 -4 7 -10 -3 -5 -1 -10 6 -10 6 0 18 -8 25 -17 7 -10 17 -18 23 -18 6 0
11 -4 12 -10 1 -17 31 -45 42 -38 5 3 7 2 4 -3 -3 -5 11 -21 31 -34 20 -14 43
-31 50 -37 7 -7 16 -13 20 -13 4 0 21 -13 39 -28 17 -15 42 -35 55 -44 12 -9
50 -36 83 -60 33 -24 87 -59 120 -77 33 -18 65 -36 70 -41 6 -4 62 -35 126
-68 522 -272 1146 -406 1742 -373 319 18 494 46 757 122 222 64 321 102 525
201 156 76 449 264 576 370 42 34 90 74 107 88 63 52 306 296 373 376 90 106
299 392 299 408 0 4 20 39 44 79 77 127 165 318 239 517 149 401 213 807 188
1190 -14 211 -30 340 -44 340 -6 0 -8 3 -4 6 3 4 -5 27 -18 53 -14 25 -25 52
-25 58 0 7 -4 13 -8 13 -4 0 -9 8 -10 18 -2 21 -10 57 -12 57 -2 0 -11 38 -12
53 -1 6 -5 12 -9 12 -8 0 -54 91 -51 103 1 4 -2 7 -6 7 -5 0 -9 6 -10 13 0 6
-3 21 -6 32 -3 11 -10 37 -15 58 -5 21 -25 68 -44 105 -18 37 -39 94 -46 127
-18 88 -41 155 -53 155 -6 0 -8 3 -5 7 4 3 2 12 -3 18 -6 7 -11 24 -12 39 -1
14 -5 26 -9 26 -3 0 -6 15 -7 32 0 18 -5 34 -10 36 -6 2 -8 11 -5 22 11 40
-230 391 -387 564 -103 114 -208 213 -222 209 -3 -1 -12 5 -20 14 -11 14 -11
16 2 8 13 -8 13 -7 1 8 -7 9 -20 17 -27 17 -8 0 -14 5 -14 10 0 14 -51 59 -67
60 -7 0 -13 4 -13 9 0 15 -82 71 -93 64 -6 -3 -7 -2 -4 4 4 5 -5 16 -18 23
-14 7 -25 17 -25 22 0 4 -6 8 -14 8 -8 0 -18 5 -22 12 -5 7 -3 8 6 3 8 -5 11
-4 6 3 -4 6 -14 8 -23 5 -12 -5 -14 -3 -8 7 6 10 4 12 -8 7 -10 -4 -16 -2 -14
6 1 7 -6 11 -17 9 -11 -2 -15 1 -11 7 3 6 -4 15 -17 20 -13 5 -32 17 -43 28
-31 28 -73 53 -90 53 -9 0 -13 5 -10 10 5 9 -1 12 -21 9 -4 0 -10 3 -13 8 -10
14 -88 53 -105 53 -9 0 -16 5 -16 10 0 6 -12 15 -27 21 -15 6 -66 28 -113 50
-143 68 -180 83 -192 81 -5 -1 -8 3 -8 8 0 5 -3 9 -7 8 -5 0 -15 1 -23 5 -50
20 -171 57 -184 57 -9 0 -16 4 -16 8 0 5 -10 8 -22 7 -13 -1 -34 4 -48 11 -46
23 -319 76 -460 89 -36 4 -76 9 -90 11 -35 7 -494 17 -500 12z"/>
<path d="M5828 6629 c-8 -6 1 -9 25 -9 20 0 37 2 37 4 0 9 -50 12 -62 5z"/>
<path d="M1283 1453 c9 -2 25 -2 35 0 9 3 1 5 -18 5 -19 0 -27 -2 -17 -5z"/>
<path d="M1443 1453 c9 -2 25 -2 35 0 9 3 1 5 -18 5 -19 0 -27 -2 -17 -5z"/>
</g>
</svg>
